#!OML:ASF X:\für Bonn\!DataBase\2005_08_12_Daniel\c3d\Daniel.ASF
:FULLY-SPECIFIED
:DEGREES
356
root 23.1045 17.4622 -19.3854 167.951 -30.6605 -171.043
lowerback 16.3764 -2.6867 -2.76959
upperback 5.55403 -4.53074 0.80677
thorax -2.96468 -2.51926 3.25497
lowerneck 4.66618 -2.9122 -9.31607
upperneck 27.4809 -8.27601 3.92787
head 8.30332 -5.68454 2.28106
rclavicle 6.52014e-014 4.77083e-015
rhumerus -44.8467 -25.5904 -66.1386
rradius 14.0696
rwrist 35.98
rhand -14.6397 17.249
rfingers 7.12502
rthumb 11.5122 -12.4148
lclavicle 6.52014e-014 4.77083e-015
lhumerus -21.7807 -4.65009 94.6609
lradius 49.1077
lwrist -5.29478
lhand -8.18887 -7.95106
lfingers 7.12502
lthumb 17.7271 21.2609
rfemur -14.9423 19.532 4.2151
rtibia 24.84
rfoot 12.7741 -8.11758
rtoes -3.21981
lfemur 1.27605 -21.9342 -4.47008
ltibia 35.34
lfoot -28.2795 -27.4282
ltoes -9.12495
357
root 23.2185 17.4011 -19.5537 167.729 -32.1545 -170.932
lowerback 16.4665 -2.77872 -2.7024
upperback 5.5169 -4.62927 0.926309
thorax -3.03904 -2.56256 3.36837
lowerneck 4.4589 -3.06226 -9.40796
upperneck 27.5112 -8.42326 4.02612
head 8.37025 -5.72877 2.3142
rclavicle 7.65321e-014 3.97569e-015
rhumerus -45.2578 -25.3208 -65.8981
rradius 14.4298
rwrist 35.7756
rhand -14.474 17.3844
rfingers 7.12502
rthumb 11.6721 -12.2704
lclavicle 7.65321e-014 3.97569e-015
lhumerus -21.4513 -4.9499 94.6754
lradius 48.7558
lwrist -5.5614
lhand -8.6703 -7.90853
lfingers 7.12502
lthumb 17.2638 21.3447
rfemur -14.3915 20.0784 3.20838
rtibia 24.0647
rfoot 13.3861 -8.76049
rtoes -3.04585
lfemur 1.42403 -22.5893 -3.78683
ltibia 34.894
lfoot -28.9727 -27.6886
ltoes -9.32692
358
root 23.3336 17.3377 -19.7195 167.504 -33.5701 -170.87
lowerback 16.6192 -2.85487 -2.65817
upperback 5.47998 -4.71483 1.02275
thorax -3.14726 -2.59941 3.47325
lowerneck 4.1708 -3.18852 -9.50064
upperneck 27.5641 -8.51408 4.07814
head 8.4535 -5.74788 2.33249
rclavicle -5.56597e-014 -1.27222e-014
rhumerus -45.6335 -25.1292 -65.6353
rradius 14.7502
rwrist 35.6426
rhand -14.3311 17.4911
rfingers 7.12502
rthumb 11.8098 -12.1559
lclavicle -5.56597e-014 -1.27222e-014
lhumerus -21.1341 -5.18022 94.5811
lradius 48.4354
lwrist -5.76178
lhand -9.1854 -7.88513
lfingers 7.12502
lthumb 16.768 21.4108
rfemur -13.7733 20.4498 2.29151
rtibia 23.4027
rfoot 14.0832 -9.14896
rtoes -3.5356
lfemur 1.5834 -23.2722 -3.17183
ltibia 34.4512
lfoot -29.5145 -27.8796
ltoes -9.468
359
root 23.4517 17.2749 -19.8849 167.292 -34.9202 -170.801
lowerback 16.7758 -2.92322 -2.5874
upperback 5.43423 -4.78559 1.10205
thorax -3.27157 -2.62777 3.54389
lowerneck 3.77946 -3.27309 -9.65497
upperneck 27.686 -8.55275 4.18531
head 8.58024 -5.74435 2.37902
rclavicle 1.1291e-013 -3.97569e-015
rhumerus -46.0329 -25.1035 -65.288
rradius 15.0254
rwrist 35.619
rhand -14.2558 17.5839
rfingers 7.12502
rthumb 11.8824 -12.0589
lclavicle 1.1291e-013 -3.97569e-015
lhumerus -20.8151 -5.25132 94.3988
lradius 48.0853
lwrist -5.91651
lhand -9.66377 -7.96758
lfingers 7.12502
lthumb 16.3074 21.3667
rfemur -13.1015 20.5788 1.53815
rtibia 22.8348
rfoot 14.7264 -9.21122
rtoes -4.86427
lfemur 1.6888 -23.9394 -2.52343
ltibia 34.0295
lfoot -29.8785 -28.0614
ltoes -9.65706
360
root 23.5741 17.2084 -20.0535 167.118 -36.1891 -170.776
lowerback 16.9027 -2.96225 -2.5371
upperback 5.3914 -4.82144 1.13137
thorax -3.38267 -2.63853 3.56497
lowerneck 3.40788 -3.33356 -9.7945
upperneck 27.7579 -8.5536 4.32
head 8.68362 -5.71706 2.43712
rclavicle 2.46493e-014 -2.46493e-014
rhumerus -46.459 -25.3868 -64.801
rradius 15.1976
rwrist 35.8013
rhand -14.1558 17.6928
rfingers 7.12502
rthumb 11.9789 -11.9445
lclavicle 2.46493e-014 -2.46493e-014
lhumerus -20.498 -5.26463 94.0869
lradius 47.7508
lwrist -5.99627
lhand -10.0575 -8.00179
lfingers 7.12502
lthumb 15.9283 21.3632
rfemur -12.4594 20.8109 0.815544
rtibia 22.349
rfoot 15.3455 -9.53295
rtoes -5.86106
lfemur 1.74677 -24.5718 -1.86811
ltibia 33.6288
lfoot -30.0509 -28.2364
ltoes -9.91521
361
root 23.7001 17.1433 -20.2319 166.95 -37.3755 -170.765
lowerback 16.9431 -2.95745 -2.52314
upperback 5.39266 -4.80767 1.13802
thorax -3.40411 -2.62895 3.56455
lowerneck 2.96723 -3.36606 -9.95825
upperneck 27.8533 -8.50898 4.48317
head 8.80642 -5.66611 2.51062
rclavicle 1.37161e-014 -1.27222e-014
rhumerus -46.9036 -26.0393 -64.1143
rradius 15.2391
rwrist 36.278
rhand -14.1563 17.8593
rfingers 7.12502
rthumb 11.9784 -11.7779
lclavicle 1.37161e-014 -1.27222e-014
lhumerus -20.1718 -5.22636 93.6875
lradius 47.4288
lwrist -5.99417
lhand -10.3373 -8.11467
lfingers 7.12502
lthumb 15.6588 21.2717
rfemur -11.7774 21.2235 0.193837
rtibia 21.9053
rfoot 15.7136 -9.99459
rtoes -6.89829
lfemur 1.79299 -25.1482 -1.1771
ltibia 33.2567
lfoot -30.2073 -28.4469
ltoes -10.2502
362
root 23.829 17.0804 -20.4182 166.793 -38.5246 -170.767
lowerback 16.9081 -2.94402 -2.55752
upperback 5.43131 -4.79194 1.13323
thorax -3.34336 -2.62219 3.57105
lowerneck 2.46849 -3.36062 -10.2208
upperneck 27.9435 -8.40197 4.69423
head 8.93932 -5.58845 2.62138
rclavicle -4.51241e-014 3.97569e-015
rhumerus -47.3197 -26.8961 -63.3349
rradius 15.1818
rwrist 36.8707
rhand -14.1628 18.0788
rfingers 7.12502
rthumb 11.9721 -11.5589
lclavicle -4.51241e-014 3.97569e-015
lhumerus -19.8408 -5.0039 93.1981
lradius 47.096
lwrist -5.94609
lhand -10.5224 -8.28853
lfingers 7.12502
lthumb 15.4806 21.1117
rfemur -11.0368 21.6275 -0.315402
rtibia 21.4537
rfoot 15.9476 -10.5299
rtoes -7.91106
lfemur 1.7851 -25.7322 -0.447657
ltibia 32.9159
lfoot -30.3089 -28.7277
ltoes -10.632
363
root 23.9605 17.0206 -20.609 166.636 -39.6245 -170.775
lowerback 16.8864 -2.901 -2.61221
upperback 5.44583 -4.73851 1.12838
thorax -3.31647 -2.59465 3.58428
lowerneck 1.98349 -3.32094 -10.5652
upperneck 28.0558 -8.25886 4.94916
head 9.08014 -5.50132 2.7657
rclavicle -2.18663e-015 -8.74653e-015
rhumerus -47.7174 -27.5548 -62.7227
rradius 15.0847
rwrist 37.1644
rhand -14.2819 18.2735
rfingers 7.12502
rthumb 11.8573 -11.3708
lclavicle -2.18663e-015 -8.74653e-015
lhumerus -19.624 -4.75115 92.6822
lradius 46.7912
lwrist -5.69137
lhand -10.6856 -8.45213
lfingers 7.12502
lthumb 15.3234 20.9601
rfemur -10.3032 21.9665 -0.720564
rtibia 21.1091
rfoot 15.8994 -11.082
rtoes -9.12673
lfemur 1.73842 -26.3233 0.320074
ltibia 32.6033
lfoot -30.3995 -29.0446
ltoes -11.0882
364
root 24.0933 16.9631 -20.8026 166.472 -40.6794 -170.793
lowerback 16.8307 -2.84532 -2.66205
upperback 5.50852 -4.67237 1.09924
thorax -3.22415 -2.56496 3.56202
lowerneck 1.43676 -3.2683 -10.9106
upperneck 28.1421 -8.06654 5.18063
head 9.21757 -5.38793 2.90677
rclavicle 1.05157e-013 -4.21423e-014
rhumerus -48.0497 -28.3219 -62.1477
rradius 14.9041
rwrist 37.4819
rhand -14.4761 18.4826
rfingers 7.12502
rthumb 11.67 -11.1724
lclavicle 1.05157e-013 -4.21423e-014
lhumerus -19.3208 -4.32531 92.1051
lradius 46.428
lwrist -5.4099
lhand -10.8628 -8.59213
lfingers 7.12502
lthumb 15.1526 20.8331
rfemur -9.61278 22.2814 -1.03868
rtibia 20.9695
rfoot 15.4163 -11.7008
rtoes -10.5962
lfemur 1.68567 -26.9618 1.08062
ltibia 32.3169
lfoot -30.5185 -29.3189
ltoes -11.6311
365
root 24.2268 16.9133 -20.9977 166.312 -41.6933 -170.806
lowerback 16.761 -2.7792 -2.70419
upperback 5.5629 -4.58982 1.06594
thorax -3.1356 -2.52635 3.52769
lowerneck 1.15998 -3.09817 -10.6805
upperneck 27.9697 -7.63614 5.01234
head 9.14982 -5.139 2.84366
rclavicle -2.38542e-015 -1.59028e-014
rhumerus -48.4105 -29.2763 -61.397
rradius 14.5884
rwrist 38.0264
rhand -14.7093 18.8142
rfingers 7.12502
rthumb 11.4451 -10.8534
lclavicle -2.38542e-015 -1.59028e-014
lhumerus -19.0356 -3.71332 91.5108
lradius 46.0214
lwrist -5.07385
lhand -11.0512 -8.7242
lfingers 7.12502
lthumb 14.9712 20.7146
rfemur -8.92197 22.1092 -1.17212
rtibia 21.0526
rfoot 14.6521 -11.536
rtoes -13.5339
lfemur 1.56284 -27.5717 1.87253
ltibia 32.082
lfoot -30.621 -29.6127
ltoes -12.2688
366
root 24.36 16.8656 -21.1946 166.144 -42.6683 -170.833
lowerback 16.6811 -2.7016 -2.73665
upperback 5.64024 -4.49306 1.02083
thorax -3.02013 -2.48257 3.47141
lowerneck 0.914144 -2.8866 -10.373
upperneck 27.7464 -7.13064 4.75592
head 9.04807 -4.8541 2.74445
rclavicle 3.27995e-014 1.51076e-014
rhumerus -48.7217 -30.2161 -60.6941
rradius 14.244
rwrist 38.6223
rhand -14.9733 19.0488
rfingers 7.12502
rthumb 11.1905 -10.6328
lclavicle 3.27995e-014 1.51076e-014
lhumerus -18.735 -2.86154 90.9103
lradius 45.5186
lwrist -4.7824
lhand -11.3364 -8.84886
lfingers 7.12502
lthumb 14.6964 20.6102
rfemur -8.2137 21.7306 -1.1826
rtibia 21.3325
rfoot 13.4038 -10.9393
rtoes -17.4111
lfemur 1.42305 -28.1539 2.64881
ltibia 31.9189
lfoot -30.7844 -29.8659
ltoes -12.9547
367
root 24.4956 16.8155 -21.3926 165.977 -43.5838 -170.887
lowerback 16.6163 -2.59315 -2.77191
upperback 5.72244 -4.35804 0.955047
thorax -2.91197 -2.41987 3.38947
lowerneck 0.831545 -2.6201 -10.0355
upperneck 27.4036 -6.57488 4.5403
head 8.87341 -4.54045 2.66294
rclavicle -9.40251e-014 4.85035e-014
rhumerus -49.122 -31.3148 -59.8524
rradius 13.8372
rwrist 39.3976
rhand -15.2522 19.2816
rfingers 7.12502
rthumb 10.9215 -10.4144
lclavicle -9.40251e-014 4.85035e-014
lhumerus -18.4337 -1.79794 90.2734
lradius 44.8439
lwrist -4.64664
lhand -11.7855 -9.00588
lfingers 7.12502
lthumb 14.2637 20.4843
rfemur -7.5643 21.3459 -1.14688
rtibia 21.751
rfoot 11.5864 -10.1896
rtoes -21.5047
lfemur 1.23831 -28.7137 3.40616
ltibia 31.8727
lfoot -30.8644 -30.0339
ltoes -13.6571
368
root 24.635 16.7604 -21.5887 165.741 -44.4278 -170.932
lowerback 16.6706 -2.45906 -2.79453
upperback 5.80071 -4.1926 0.898724
thorax -2.87307 -2.34156 3.31383
lowerneck 0.847976 -2.29735 -9.61021
upperneck 27.0183 -5.94649 4.24356
head 8.65976 -4.19429 2.54533
rclavicle -9.78021e-014 7.23576e-014
rhumerus -49.4383 -32.1441 -59.2141
rradius 13.4834
rwrist 39.9662
rhand -15.5475 19.3322
rfingers 7.12502
rthumb 10.6366 -10.3786
lclavicle -9.78021e-014 7.23576e-014
lhumerus -18.2271 -0.535403 89.6241
lradius 44.1218
lwrist -4.65047
lhand -12.4746 -9.18667
lfingers 7.12502
lthumb 13.5996 20.3491
rfemur -6.867 20.9288 -1.02715
rtibia 22.1907
rfoot 9.33675 -9.32458
rtoes -25.387
lfemur 1.03427 -29.1819 4.17426
ltibia 31.9779
lfoot -30.7252 -30.2134
ltoes -14.5489
369
root 24.7766 16.7027 -21.7844 165.472 -45.2121 -170.97
lowerback 16.733 -2.29181 -2.75903
upperback 5.925 -3.98114 0.801035
thorax -2.79999 -2.24323 3.15229
lowerneck 0.882181 -1.9496 -9.00956
upperneck 26.5814 -5.28835 3.91516
head 8.42321 -3.81725 2.38826
rclavicle 1.94809e-014 -2.22639e-014
rhumerus -49.5637 -32.6857 -59.0173
rradius 13.2093
rwrist 40.0506
rhand -15.7565 19.2179
rfingers 7.12502
rthumb 10.4351 -10.5031
lclavicle 1.94809e-014 -2.22639e-014
lhumerus -17.9847 0.881154 88.8933
lradius 43.3523
lwrist -4.93428
lhand -13.2607 -9.26371
lfingers 7.12502
lthumb 12.8419 20.3213
rfemur -6.12058 20.4299 -0.848373
rtibia 22.5723
rfoot 6.86839 -8.22427
rtoes -29.0129
lfemur 0.778761 -29.5672 4.94031
ltibia 32.2568
lfoot -30.6008 -30.2978
ltoes -15.5798
370
root 24.9222 16.6401 -21.9782 165.205 -45.9277 -170.993
lowerback 16.8602 -2.09514 -2.71451
upperback 6.00803 -3.72794 0.727895
thorax -2.80526 -2.12081 3.00952
lowerneck 1.01892 -1.57653 -8.37805
upperneck 26.1007 -4.59864 3.50586
head 8.15808 -3.43147 2.20041
rclavicle -6.24184e-014 3.89618e-014
rhumerus -49.6211 -33.0316 -58.9557
rradius 12.9859
rwrist 39.9961
rhand -15.8834 18.9142
rfingers 7.12502
rthumb 10.3127 -10.813
lclavicle -6.24184e-014 3.89618e-014
lhumerus -17.7738 2.29723 88.0744
lradius 42.5357
lwrist -5.22655
lhand -14.1074 -9.34089
lfingers 7.12502
lthumb 12.0256 20.2936
rfemur -5.38344 20.0166 -0.627332
rtibia 22.9061
rfoot 4.20251 -7.44898
rtoes -31.3039
lfemur 0.410667 -29.8422 5.75892
ltibia 32.7036
lfoot -30.3365 -30.3626
ltoes -16.5748
